# xmcd CD database file
#
# Track frame offsets:
#	150
#	21501
#	34325
#	52964
#	73744
#	87649
#	108807
#	127430
#	147486
#	165627
#	178891
#	200031
#	220688
#	236734
#	253578
#	272888
#	290431
#	322910
#
# Disc length: 4540 seconds
#
# Revision: 1
# Processed by: cddbd v1.5.2PL0 Copyright (c) Steve Scherf et al.
# Submitted via: CDex 1.51
#
DISCID=2311ba12
DTITLE=Kevin Fowler - Kevin Fowler Live At Billy Bob's Texas
DYEAR=2003
DGENRE=Country
TTITLE0=100% Texan
TTITLE1=Butterbean
TTITLE2=There's A Fool Born Everyday
TTITLE3=If These Old Walls Could Talk
TTITLE4=Ball and Chain
TTITLE5=The Lord Loves The Drinkin' Man
TTITLE6=High On The Hog
TTITLE7=Not Lovin' Anymore
TTITLE8=Speak Of The Devil
TTITLE9=Tall Drink Of Water
TTITLE10=J.O.B.
TTITLE11=Penny For Your Thoughts
TTITLE12=Is Anybody Going To San Antone?
TTITLE13=True Love
TTITLE14=All The Tequila in Tijuana
TTITLE15=Read Between The Lines
TTITLE16=Beer, Bait and Ammo
TTITLE17=100% Texan (Studio Version)
EXTD=YEAR: 2003
EXTT0=
EXTT1=
EXTT2=
EXTT3=
EXTT4=
EXTT5=
EXTT6=
EXTT7=
EXTT8=
EXTT9=
EXTT10=
EXTT11=
EXTT12=
EXTT13=
EXTT14=
EXTT15=
EXTT16=
EXTT17=
PLAYORDER=
